Coordinates
version=1
nRows=4
nColumns=107
inDegrees=yes

Units are S.I. units (second, meters, Newtons, ...)
If the header above contains a line with 'inDegrees', this indicates whether rotational values are in degrees (yes) or radians (no).

endheader
time	sternoclavicular_r2	sternoclavicular_r3	unrotscap_r3	unrotscap_r2	acromioclavicular_r2	acromioclavicular_r3	acromioclavicular_r1	unrothum_r1	unrothum_r3	unrothum_r2	elv_angle	shoulder_elv	shoulder1_r2	shoulder_rot	elbow_flexion	pro_sup	deviation	flexion	proximal_distal_r1	proximal_distal_r3	cmc_flexion	cmc_abduction	mp_flexion	ip_flexion	mcp2_flexion	mcp2_abduction	pm2_flexion	md2_flexion	mcp3_flexion	mcp3_abduction	pm3_flexion	md3_flexion	mcp4_flexion	mcp4_abduction	pm4_flexion	md4_flexion	mcp5_flexion	mcp5_abduction	pm5_flexion	md5_flexion	bicpt_tx	bicpt_ty	bicpt_tz	bicpt2_tx	bicpt2_ty	bicpt2_tz	ptpt_tx	ptpt_ty	ptpt_tz	FCUpt_tx	FCUpt_ty	FCUpt_tz	EDCpt_tx	EDCpt_ty	EDCpt_tz	APLpt_tx	APLpt_ty	APLpt_tz	FPLpt_tx	FPLpt_ty	FPLpt_tz	FPLpt2_tx	FPLpt2_ty	FPLpt2_tz	PEC1pt2_tx	PEC1pt2_ty	PEC1pt2_tz	PEC1pt3_tx	PEC1pt3_ty	PEC1pt3_tz	PEC2pt2_tx	PEC2pt2_ty	PEC2pt2_tz	PEC2pt3_tx	PEC2pt3_ty	PEC2pt3_tz	PEC3pt2_tx	PEC3pt2_ty	PEC3pt2_tz	PEC3pt3_tx	PEC3pt3_ty	PEC3pt3_tz	DELT2pt2a_tx	DELT2pt2a_ty	DELT2pt2a_tz	DELT2pt2_tx	DELT2pt2_ty	DELT2pt2_tz	LAT1pt2_tx	LAT1pt2_ty	LAT1pt2_tz	LAT1pt3_tx	LAT1pt3_ty	LAT1pt3_tz	LAT2pt2_tx	LAT2pt2_ty	LAT2pt2_tz	LAT2pt3_tx	LAT2pt3_ty	LAT2pt3_tz	LAT3pt2_tx	LAT3pt2_ty	LAT3pt2_tz	LAT3pt3_tx	LAT3pt3_ty	LAT3pt3_tz
      1.60000000	     -0.32758050	      0.13874764	     -0.13874764	      0.32758050	     -0.06632839	      0.53604270	      0.24094750	     -0.24094750	     -0.53604270	      0.06632839	     99.10729877	     77.55759513	     -1.72974868	    -19.49041876	     27.59518472	     53.23605992	      0.26904310	     -0.39845244	      0.30588251	     -0.19922622	     12.34235391	    -18.88427347	     -3.99590137	     -2.13997482	     19.56747116	     -0.48217183	     17.72359812	    -30.25453416	     16.61880418	     -5.76203674	     13.23449754	     14.19927610	     14.63115150	     -6.45754608	      1.50401814	     23.42574361	      6.40817166	     -6.85701569	      6.14634459	      4.94977082	      0.00081276	     -0.03076283	     -0.00480945	      0.01639877	     -0.01769637	     -0.00593426	      0.00361646	     -0.06744349	     -0.00433845	      0.00913986	     -0.18319485	     -0.00041442	     -0.00638831	      0.00194570	      0.00000393	      0.00027472	      0.00010989	      0.00054944	      0.00035164	      0.00105493	      0.00059340	      0.00002911	     -0.00022394	     -0.00026873	      0.00254217	      0.00891913	      0.00620461	     -0.00831590	      0.02007882	     -0.01904471	      0.00254217	      0.00891913	      0.00620461	      0.00056014	      0.01861384	     -0.00978088	      0.00400023	      0.00495982	      0.01609403	      0.00000000	      0.00804657	      0.00000000	     -0.00728180	     -0.03365141	     -0.00663623	      0.01348046	     -0.00041634	     -0.00312335	     -0.00090484	      0.01516683	     -0.00620461	      0.00249908	      0.02188850	     -0.01809679	     -0.00607535	      0.01314171	     -0.00555830	     -0.01266775	      0.02774841	     -0.03106615	     -0.02378435	      0.01469287	     -0.00745415	     -0.01577006	      0.03205717	     -0.03882192
      1.63333333	     -0.32473041	      0.13754048	     -0.13754048	      0.32473041	     -0.06575130	      0.53137890	      0.23885116	     -0.23885116	     -0.53137890	      0.06575130	     99.70280133	     76.88281124	     -1.74014216	    -22.98058910	     27.87116585	     57.50259702	      0.28008633	     -0.35253224	      0.31590667	     -0.17626612	     12.48296654	    -19.07376601	     -3.83421807	     -2.16258612	     20.41564228	     -0.70623332	     16.71005601	    -29.67232197	     16.69337816	     -5.20520889	     12.15544436	     13.86694091	     15.15359489	     -6.08851204	      0.68098493	     23.39157397	      6.85610103	     -6.84378726	      5.74647468	      4.96313628	      0.00082189	     -0.03079446	     -0.00481454	      0.01625673	     -0.01777134	     -0.00538687	      0.00330121	     -0.06764734	     -0.00468214	      0.00958965	     -0.18308748	     -0.00039533	     -0.00690030	      0.00213950	     -0.00006223	      0.00025662	      0.00010265	      0.00051325	      0.00032848	      0.00098543	      0.00055431	      0.00002886	     -0.00022551	     -0.00027061	      0.00252005	      0.00884153	      0.00615063	     -0.00824355	      0.01990412	     -0.01887902	      0.00252005	      0.00884153	      0.00615063	      0.00055527	      0.01845189	     -0.00969578	      0.00397494	      0.00491666	      0.01603328	      0.00000000	      0.00790616	      0.00000000	     -0.00721845	     -0.03335863	     -0.00651969	      0.01543686	     -0.00052520	     -0.00440137	     -0.00089697	      0.01503487	     -0.00615063	      0.00247734	      0.02169806	     -0.01793934	     -0.00602249	      0.01302738	     -0.00550994	     -0.01255754	      0.02750698	     -0.03079586	     -0.02357742	      0.01456503	     -0.00738930	     -0.01563285	      0.03177826	     -0.03848415
      1.66666667	     -0.32483135	      0.13758323	     -0.13758323	      0.32483135	     -0.06577174	      0.53154407	      0.23892540	     -0.23892540	     -0.53154407	      0.06577174	     99.65062068	     76.90670964	     -1.73923143	    -23.00467900	     27.84363240	     57.50058865	      0.28014794	     -0.35253399	      0.31596141	     -0.17626699	     12.48222757	    -19.07396353	     -3.83498296	     -2.16271522	     20.41614134	     -0.70760587	     16.71024303	    -29.67178842	     16.69251633	     -5.20651677	     12.15562008	     13.86694550	     15.15113604	     -6.08949353	      0.67964292	     23.39119969	      6.85409117	     -6.84458683	      5.74500756	      4.96301324	      0.00082098	     -0.03079131	     -0.00481404	      0.01625677	     -0.01776386	     -0.00538710	      0.00330136	     -0.06764724	     -0.00468198	      0.00958944	     -0.18308753	     -0.00039533	     -0.00690005	      0.00213941	     -0.00006221	      0.00025661	      0.00010265	      0.00051323	      0.00032846	      0.00098539	      0.00055428	      0.00002886	     -0.00022550	     -0.00027060	      0.00252083	      0.00884428	      0.00615254	     -0.00824612	      0.01991031	     -0.01888489	      0.00252083	      0.00884428	      0.00615254	      0.00055544	      0.01845763	     -0.00969880	      0.00397584	      0.00491819	      0.01603545	      0.00000000	      0.00791111	      0.00000000	     -0.00722069	     -0.03336899	     -0.00652380	      0.01544974	     -0.00052596	     -0.00441090	     -0.00089725	      0.01503955	     -0.00615254	      0.00247811	      0.02170480	     -0.01794491	     -0.00602436	      0.01303143	     -0.00551165	     -0.01256144	      0.02751553	     -0.03080544	     -0.02358474	      0.01456956	     -0.00739160	     -0.01563771	      0.03178813	     -0.03849611
      1.70000000	     -0.32240653	      0.13655619	     -0.13655619	      0.32240653	     -0.06528076	      0.52757617	      0.23714186	     -0.23714186	     -0.52757617	      0.06528076	    100.22169792	     76.33261119	     -1.74919861	    -25.92380751	     28.09184582	     60.92293209	      0.29207765	     -0.30229402	      0.32656423	     -0.15114701	     12.66499788	    -19.27714134	     -4.39008628	     -1.89399854	     20.36286222	     -0.90918308	     15.92875610	    -28.62407830	     16.19211472	     -5.66240193	     12.34164806	     13.51401260	     14.84537590	     -5.89129243	     -0.03103406	     22.70235223	      6.52989326	     -6.82892339	      5.09442196	      4.94609420	      0.00082919	     -0.03081975	     -0.00481862	      0.01611276	     -0.01783129	     -0.00492959	      0.00304848	     -0.06781076	     -0.00495767	      0.00995429	     -0.18299767	     -0.00037011	     -0.00731073	      0.00229892	     -0.00012241	      0.00023276	      0.00009310	      0.00046552	      0.00029794	      0.00089381	      0.00050277	      0.00002852	     -0.00022751	     -0.00027302	      0.00250202	      0.00877826	      0.00610661	     -0.00818456	      0.01976168	     -0.01874391	      0.00250202	      0.00877826	      0.00610661	      0.00055129	      0.01831984	     -0.00962640	      0.00395421	      0.00488148	      0.01598294	      0.00000000	      0.00779261	      0.00000000	     -0.00716679	     -0.03311990	     -0.00642543	      0.01695993	     -0.00062047	     -0.00561915	     -0.00089055	      0.01492728	     -0.00610661	      0.00245961	      0.02154278	     -0.01781096	     -0.00597939	      0.01293415	     -0.00547051	     -0.01246767	      0.02731014	     -0.03057548	     -0.02340869	      0.01446080	     -0.00733642	     -0.01552098	      0.03155084	     -0.03820874
